<svg height="512pt" viewBox="0 -18 512 512" width="512pt" xmlns="http://www.w3.org/2000/svg"><path d="m109.320312 303.425781c-12.171874-20.417969-16.265624-41.289062-11.773437-61.40625.9375-4.199219 4.453125-7.714843 8.652344-8.652343 13.675781-3.054688 24.53125-2.148438 39.132812 2.570312-.953125-26.726562 6.871094-55.835938 21.480469-74.464844-15.453125-9.589844-33.679688-15.128906-53.203125-15.128906-55.824219 0-101.078125 45.253906-101.078125 101.078125 0 19.835937 3.65625 40.390625 17.648438 56.003906zm0 0" fill="#ffc850"/><path d="m129.019531 147.527344c-5.027343-.769532-10.171875-1.183594-15.414062-1.183594-55.820313 0-101.074219 45.253906-101.074219 101.078125 0 19.835937 3.65625 40.390625 17.648438 56.003906h30.90625c-13.992188-15.609375-17.648438-36.167969-17.648438-56.003906 0-50.554687 37.113281-92.4375 85.582031-99.894531zm0 0" fill="#feb644"/><path d="m340.058594 141.535156c41.335937 23.148438 49.71875 72.085938 42.367187 111.589844-3.285156 17.636719-10.34375 36.84375-20.078125 51.332031h127.097656c9.914063-16.78125 15.613282-39.441406 15.613282-60.34375 0-28.128906-10.308594-53.851562-27.347656-73.597656-9.234376-10.699219-13.925782-24.445313-13.820313-38.578125.011719-1.5625-.027344-3.136719-.121094-4.722656-2.117187-36.582032-32.113281-65.96875-68.734375-67.3125-40.742187-1.492188-75.269531 33.152344-75.269531 73.558594v.375c6.960937 1.5625 13.804687 4.132812 20.292969 7.699218zm0 0" fill="#5fbf32"/><path d="m370.96875 141.535156c-13.671875-5.4375-20.617188-20.921875-15.191406-34.597656 8.898437-22.414062 28.566406-39.9375 52.257812-45.339844-4.210937-.949218-8.554687-1.535156-13-1.699218-40.867187-1.496094-75.480468 33.367187-75.269531 73.933593 6.960937 1.566407 13.800781 4.136719 20.292969 7.703125 41.335937 23.148438 49.71875 72.085938 42.367187 111.589844-3.285156 17.636719-10.34375 36.84375-20.078125 51.332031h30.90625c9.734375-14.488281 16.792969-33.695312 20.078125-51.332031 7.351563-39.503906-1.03125-88.441406-42.363281-111.589844zm0 0" fill="#54af25"/><path d="m341.089844 139.476562c-23.011719-12.648437-50.40625-12.753906-71.996094-.027343-.710938.417969-1.503906.628906-2.296875.632812h-.066406c-.796875-.007812-1.589844-.214843-2.300781-.632812-21.589844-12.726563-52.078126-12.621094-75.085938.027343-30.617188 16.917969-48.527344 52.71875-47.117188 92.335938 14.605469 4.71875 28.835938 16.332031 41.019532 28.515625 3.394531 3.394531 24.625 21.695313 34.503906 44.128906h147.6875c9.738281-14.488281 16.792969-33.695312 20.078125-51.332031 7.351563-39.503906-3.089844-90.503906-44.425781-113.648438zm0 0" fill="#f25c5c"/><path d="m214.152344 260.328125c-10.449219-10.449219-22.40625-20.480469-34.8125-26.101563-3.890625-1.761718-6.355469-5.6875-6.242188-9.957031.964844-36.570312 18.492188-68.957031 47.152344-84.792969 7.003906-3.851562 14.699219-6.53125 22.625-8.050781-17.777344-3.488281-37.472656-.777343-53.53125 8.050781-30.617188 16.917969-48.527344 52.71875-47.117188 92.335938 14.605469 4.71875 28.835938 16.332031 41.019532 28.515625 3.394531 3.394531 24.625 21.695313 34.503906 44.128906h30.90625c-9.875-22.433593-31.109375-40.734375-34.503906-44.128906zm0 0" fill="#d83f3f"/><path d="m215.6875 303.425781h72.410156c-1.949218-4.921875-3.585937-10.488281-4.257812-11.917969-14.6875-31.160156-42.027344-51.335937-69.832032-54.832031-4.265624-.539062-8.765624 1.582031-11.066406 5.214844-4.335937 6.84375-9.613281 16.613281-11.664062 24.855469 7.125 8.042968 17.683594 21.402344 24.410156 36.679687zm0 0" fill="#ffc850"/><path d="m248.710938 303.425781c-5.746094-13.050781-14.289063-24.699219-21.097657-32.828125-2.164062-2.585937-2.78125-6.125-1.605469-9.28125 2.417969-6.496094 6.144532-13.3125 9.433594-18.59375-6.96875-3.082031-14.183594-5.136718-21.433594-6.046875-4.367187-.550781-8.679687 1.453125-11.039062 5.171875-4.339844 6.84375-9.632812 16.636719-11.691406 24.898438 7.125 8.042968 17.683594 21.402344 24.410156 36.679687h72.410156zm0 0" fill="#feb644"/><path d="m217.75 304.457031c-9.878906-22.433593-28.019531-43.824219-31.414062-47.21875-24.359376-24.359375-56.910157-34.101562-84.257813-27.992187-4.199219.9375-7.714844 4.453125-8.652344 8.652344-4.492187 20.117187-.398437 46.140624 11.769531 66.558593zm0 0" fill="#5fbf32"/><path d="m124.332031 237.898438c.9375-4.199219 4.453125-7.714844 8.652344-8.652344.425781-.09375.855469-.171875 1.28125-.261719-10.988281-2.089844-21.953125-2.023437-32.1875.261719-4.199219.9375-7.714844 4.453125-8.652344 8.652344-4.492187 20.117187-.398437 46.140624 11.769531 66.558593h30.910157c-12.171875-20.417969-16.265625-46.441406-11.773438-66.558593zm0 0" fill="#54af25"/><g fill="#ad7b64"><path d="m107.214844 168.625c-4.269532 0-7.726563-3.457031-7.726563-7.726562 0-23.617188 5.683594-45.753907 16.894531-65.792969 2.085938-3.722657 6.792969-5.054688 10.515626-2.96875 3.726562 2.082031 5.054687 6.792969 2.972656 10.515625-9.90625 17.703125-14.929688 37.300781-14.929688 58.246094 0 4.269531-3.460937 7.726562-7.726562 7.726562zm0 0"/><path d="m266.457031 154.074219c-4.265625 0-7.726562-3.460938-7.726562-7.730469 0-35.335938 15.367187-60.308594 28.261719-75.039062 2.8125-3.210938 7.691406-3.535157 10.902343-.722657 3.210938 2.808594 3.535157 7.691407.726563 10.902344-16.214844 18.523437-24.4375 40.347656-24.4375 64.859375 0 4.269531-3.460938 7.730469-7.726563 7.730469zm0 0"/><path d="m392.34375 81.542969c-4.265625 0-7.726562-3.460938-7.726562-7.726563 0-23.058594-7.730469-43.582031-22.980469-61-2.8125-3.210937-2.488281-8.09375.722656-10.902344 3.210937-2.8125 8.09375-2.488281 10.902344.722657 12.230469 13.972656 26.808593 37.660156 26.808593 71.179687 0 4.265625-3.457031 7.726563-7.726562 7.726563zm0 0"/></g><path d="m168.554688 315.304688-49.710938-49.710938c-3.015625-3.019531-3.015625-7.910156 0-10.929688 3.019531-3.015624 7.910156-3.015624 10.929688 0l49.710937 49.710938c3.015625 3.019531 3.015625 7.910156 0 10.929688-3.019531 3.015624-7.910156 3.015624-10.929687 0zm0 0" fill="#6fd844"/><path d="m383.226562 441.269531h-254.453124c-9.039063 0-17.859376-1-26.371094-2.898437 15.65625 22.394531 40.636718 36.890625 68.777344 36.890625h169.640624c28.140626 0 53.121094-14.496094 68.777344-36.890625-8.511718 1.894531-17.332031 2.898437-26.371094 2.898437zm0 0" fill="#d8dce5"/><path d="m144.269531 441.269531h-15.496093c-9.039063 0-17.859376-1-26.371094-2.898437 15.65625 22.394531 40.636718 36.890625 68.777344 36.890625h39.746093c-26.90625 0-50.914062-13.257813-66.65625-33.992188zm0 0" fill="#c3c8d1"/><path d="m497.863281 301.367188h-483.726562c-7.808594 0-14.136719 6.328124-14.136719 14.136718 0 71.117188 57.652344 128.769532 128.773438 128.769532h254.453124c71.121094 0 128.773438-57.652344 128.773438-128.769532 0-7.808594-6.328125-14.136718-14.136719-14.136718zm0 0" fill="#e4eaf8"/><path d="m30.90625 315.503906c0-7.808594 6.332031-14.136718 14.140625-14.136718h-30.910156c-7.808594 0-14.136719 6.328124-14.136719 14.136718 0 71.117188 57.652344 128.769532 128.773438 128.769532h30.90625c-71.117188 0-128.773438-57.652344-128.773438-128.769532zm0 0" fill="#d8dce5"/></svg>